<svg width="512" height="512" viewBox="0 0 512 512" fill="none" xmlns="http://www.w3.org/2000/svg">
<g clip-path="url(#clip0)">
<g filter="url(#filter0_d)">
<path d="M413.84 122.759C433.616 106.181 433.565 75.576 411.018 63.0267C376.991 44.0888 337.986 31.8955 296.975 27.6627C238.402 21.6172 179.099 32.157 128.492 57.6067C77.8856 83.0564 38.8794 121.956 17.6739 168.121C-3.53157 214.286 -5.7194 265.069 11.4582 312.396C28.6358 359.724 64.193 400.88 112.478 429.323C160.763 457.767 219.005 471.865 277.945 469.377C336.886 466.888 393.143 447.957 437.775 415.591C468.009 393.666 491.732 366.429 507.442 336.051C519.483 312.766 502.332 287.122 476.469 282.846V282.846C452.952 278.959 430.986 294.585 418.424 314.841C408.382 331.033 394.723 345.606 378.035 357.707C348.803 378.905 311.957 391.305 273.353 392.935C234.749 394.564 196.603 385.33 164.978 366.701C133.353 348.072 110.064 321.116 98.8134 290.118C87.5627 259.12 88.9956 225.86 102.884 195.623C116.773 165.386 142.321 139.909 175.467 123.24C208.612 106.572 247.454 99.6683 285.817 103.628C311.85 106.315 336.648 113.899 358.441 125.656C376.142 135.206 398.426 135.679 413.84 122.759V122.759Z" fill="#36C1C2"/>
<path fill-rule="evenodd" clip-rule="evenodd" d="M64.7395 393.165C64.8585 393.263 64.977 393.363 65.095 393.464C85.9559 411.246 83.1645 450.984 59.9564 486C106.088 475.852 167.616 469.657 235.184 469.657C245.142 469.657 254.969 469.792 264.635 470.054V396.357C257.318 398.835 249.092 400.226 240.398 400.226C226.274 400.226 213.388 396.555 203.621 390.517H114.703V393.165H64.7395Z" fill="#36C1C2"/>
<ellipse rx="42.3825" ry="44.0261" transform="matrix(0.968445 0.249228 -0.229831 0.97323 468.384 215.272)" fill="#36C1C2"/>
<ellipse rx="34.7662" ry="36.1144" transform="matrix(0.968445 0.249228 -0.229831 0.97323 365.788 240.744)" fill="#36C1C2"/>
<ellipse rx="28.255" ry="29.3508" transform="matrix(0.968445 0.249228 -0.229831 0.97323 276.722 263.097)" fill="#36C1C2"/>
</g>
<rect width="512" height="512" rx="94.25" fill="url(#paint0_linear)"/>
<g filter="url(#filter1_d)">
<path d="M387.279 148.423C404.404 134.672 404.307 108.511 384.871 98.2847C356.228 83.2145 323.497 73.5037 289.106 70.1034C239.334 65.1824 188.94 73.7618 145.937 94.4781C102.934 115.194 69.788 146.859 51.7685 184.438C33.749 222.017 31.8899 263.354 46.4867 301.879C61.0834 340.404 91.2983 373.906 132.329 397.059C173.359 420.212 222.85 431.688 272.935 429.663C323.021 427.637 370.826 412.227 408.751 385.881C433.803 368.478 453.594 346.965 466.941 322.978C477.869 303.337 463.203 281.241 441.004 277.726V277.726C421.287 274.604 402.918 287.674 391.98 304.373C383.479 317.352 371.987 329.038 357.988 338.763C333.147 356.018 301.837 366.112 269.033 367.438C236.229 368.765 203.814 361.248 176.941 346.084C150.067 330.919 130.278 308.977 120.717 283.745C111.157 258.512 112.374 231.438 124.177 206.825C135.979 182.212 157.688 161.473 185.854 147.904C214.019 134.336 247.025 128.717 279.624 131.94C302.303 134.182 323.88 140.615 342.732 150.601C356.971 158.144 374.715 158.511 387.279 148.423V148.423Z" fill="white"/>
<path fill-rule="evenodd" clip-rule="evenodd" d="M91.7652 367.617C91.869 367.7 91.9723 367.783 92.0752 367.867C109.802 382.342 107.43 414.691 87.707 443.195C126.908 434.934 179.194 429.891 236.612 429.891C245.072 429.891 253.421 430 261.633 430.213V370.225C255.414 372.243 248.424 373.375 241.035 373.375C229.031 373.375 218.079 370.386 209.778 365.469H134.227V367.617H91.7652Z" fill="white"/>
<circle cx="434.75" cy="222.832" r="35.9225" transform="rotate(13.8486 434.75 222.832)" fill="white"/>
<circle cx="347.573" cy="243.566" r="29.4671" transform="rotate(13.8486 347.573 243.566)" fill="white"/>
<circle cx="271.895" cy="261.762" r="23.9483" transform="rotate(13.8486 271.895 261.762)" fill="white"/>
</g>
</g>
<defs>
<filter id="filter0_d" x="-1.17687" y="25.9998" width="513.723" height="462.354" filterUnits="userSpaceOnUse" color-interpolation-filters="sRGB">
<feFlood flood-opacity="0" result="BackgroundImageFix"/>
<feColorMatrix in="SourceAlpha" type="matrix" values="0 0 0 0 0 0 0 0 0 0 0 0 0 0 0 0 0 0 127 0"/>
<feOffset dy="1.17681"/>
<feGaussianBlur stdDeviation="0.588405"/>
<feColorMatrix type="matrix" values="0 0 0 0 0 0 0 0 0 0 0 0 0 0 0 0 0 0 0.25 0"/>
<feBlend mode="normal" in2="BackgroundImageFix" result="effect1_dropShadow"/>
<feBlend mode="normal" in="SourceGraphic" in2="effect1_dropShadow" result="shape"/>
</filter>
<filter id="filter1_d" x="35.75" y="68.7498" width="443.476" height="376.445" filterUnits="userSpaceOnUse" color-interpolation-filters="sRGB">
<feFlood flood-opacity="0" result="BackgroundImageFix"/>
<feColorMatrix in="SourceAlpha" type="matrix" values="0 0 0 0 0 0 0 0 0 0 0 0 0 0 0 0 0 0 127 0"/>
<feOffset dy="1"/>
<feGaussianBlur stdDeviation="0.5"/>
<feColorMatrix type="matrix" values="0 0 0 0 0 0 0 0 0 0 0 0 0 0 0 0 0 0 0.25 0"/>
<feBlend mode="normal" in2="BackgroundImageFix" result="effect1_dropShadow"/>
<feBlend mode="normal" in="SourceGraphic" in2="effect1_dropShadow" result="shape"/>
</filter>
<linearGradient id="paint0_linear" x1="256" y1="0" x2="256" y2="512" gradientUnits="userSpaceOnUse">
<stop stop-color="#36C1C2"/>
<stop offset="1" stop-color="#2FA7A7"/>
</linearGradient>
<clipPath id="clip0">
<rect width="512" height="512" fill="white"/>
</clipPath>
</defs>
</svg>
